<svg width="450" height="400" viewBox="0 0 450 400" fill="none" xmlns="http://www.w3.org/2000/svg">
  <defs>
    <linearGradient id="screenGradient" x1="0%" y1="0%" x2="100%" y2="100%">
      <stop offset="0%" style="stop-color:#667eea;stop-opacity:1" />
      <stop offset="50%" style="stop-color:#764ba2;stop-opacity:1" />
      <stop offset="100%" style="stop-color:#f093fb;stop-opacity:1" />
    </linearGradient>
    <linearGradient id="deviceGradient" x1="0%" y1="0%" x2="100%" y2="100%">
      <stop offset="0%" style="stop-color:#e0e0e0;stop-opacity:1" />
      <stop offset="100%" style="stop-color:#f5f5f5;stop-opacity:1" />
    </linearGradient>
    <linearGradient id="cartGradient" x1="0%" y1="0%" x2="100%" y2="100%">
      <stop offset="0%" style="stop-color:#ff6b6b;stop-opacity:1" />
      <stop offset="100%" style="stop-color:#ffa500;stop-opacity:1" />
    </linearGradient>
    <linearGradient id="qrGradient1" x1="0%" y1="0%" x2="100%" y2="100%">
      <stop offset="0%" style="stop-color:#7444fd;stop-opacity:1" />
      <stop offset="100%" style="stop-color:#0c87f0;stop-opacity:1" />
    </linearGradient>
    <linearGradient id="qrGradient2" x1="0%" y1="0%" x2="100%" y2="100%">
      <stop offset="0%" style="stop-color:#0c87f0;stop-opacity:1" />
      <stop offset="100%" style="stop-color:#7444fd;stop-opacity:1" />
    </linearGradient>
    <filter id="glow">
      <feGaussianBlur stdDeviation="4" result="coloredBlur"/>
      <feMerge>
        <feMergeNode in="coloredBlur"/>
        <feMergeNode in="SourceGraphic"/>
      </feMerge>
    </filter>
    <style>
      .device-animation {
        animation: deviceFloat 4s ease-in-out infinite;
        transform-origin: center;
      }
      .device-animation-delayed {
        animation: deviceFloat 4s ease-in-out infinite;
        animation-delay: 0.5s;
        transform-origin: center;
      }
      .cart-animation {
        animation: cartFloat 3s ease-in-out infinite;
        transform-origin: center;
      }
      .price-animation {
        animation: pricePulse 2s ease-in-out infinite;
        transform-origin: center;
      }
      .float-element {
        animation: elementFloat 5s ease-in-out infinite;
      }
      .product-float1 {
        animation: productFloat1 4s ease-in-out infinite;
        transform-origin: center;
      }
      .product-float2 {
        animation: productFloat2 5s ease-in-out infinite;
        transform-origin: center;
      }
      .product-float3 {
        animation: productFloat3 6s ease-in-out infinite;
        transform-origin: center;
      }
      .product-float4 {
        animation: productFloat4 4.5s ease-in-out infinite;
        transform-origin: center;
      }
      @keyframes deviceFloat {
        0%, 100% { transform: translateY(0px); }
        50% { transform: translateY(-10px); }
      }
      @keyframes productFloat1 {
        0%, 100% { transform: translateY(0px) translateX(0px) rotate(0deg); }
        50% { transform: translateY(-20px) translateX(10px) rotate(15deg); }
      }
      @keyframes productFloat2 {
        0%, 100% { transform: translateY(0px) translateX(0px) rotate(0deg); }
        50% { transform: translateY(-18px) translateX(-8px) rotate(-12deg); }
      }
      @keyframes productFloat3 {
        0%, 100% { transform: translateY(0px) translateX(0px) rotate(0deg); }
        50% { transform: translateY(-25px) translateX(12px) rotate(18deg); }
      }
      @keyframes productFloat4 {
        0%, 100% { transform: translateY(0px) translateX(0px) rotate(0deg); }
        50% { transform: translateY(-16px) translateX(-10px) rotate(-15deg); }
      }
      @keyframes cartFloat {
        0%, 100% { transform: translateY(0px) scale(1); }
        50% { transform: translateY(-15px) scale(1.1) rotate(5deg); }
      }
      @keyframes pricePulse {
        0%, 100% { transform: scale(1); opacity: 1; }
        50% { transform: scale(1.15); opacity: 0.9; }
      }
      @keyframes elementFloat {
        0%, 100% { transform: translateY(0px) scale(1); opacity: 0.3; }
        50% { transform: translateY(-20px) scale(1.2); opacity: 0.5; }
      }
    </style>
  </defs>
  
  <!-- QR Code Background (Behind All Animated Icons) - More Visible -->
  <g id="qr-background" transform="translate(225, 200)" opacity="0.4" filter="url(#glow)">
    <!-- Large QR Code Background -->
    <rect x="-140" y="-140" width="280" height="280" rx="25" fill="white" opacity="0.9"/>
    <rect x="-135" y="-135" width="270" height="270" rx="20" fill="white" stroke="url(#qrGradient1)" stroke-width="4" opacity="0.95"/>
    
    <!-- Top Left Finder Pattern -->
    <rect x="-120" y="-120" width="70" height="70" fill="url(#qrGradient1)" opacity="0.9"/>
    <rect x="-110" y="-110" width="50" height="50" fill="white"/>
    <rect x="-100" y="-100" width="30" height="30" fill="url(#qrGradient1)" opacity="0.9"/>
    <rect x="-95" y="-95" width="20" height="20" fill="white"/>
    <rect x="-90" y="-90" width="10" height="10" fill="url(#qrGradient1)"/>
    
    <!-- Top Right Finder Pattern -->
    <rect x="50" y="-120" width="70" height="70" fill="url(#qrGradient2)" opacity="0.9"/>
    <rect x="60" y="-110" width="50" height="50" fill="white"/>
    <rect x="70" y="-100" width="30" height="30" fill="url(#qrGradient2)" opacity="0.9"/>
    <rect x="75" y="-95" width="20" height="20" fill="white"/>
    <rect x="80" y="-90" width="10" height="10" fill="url(#qrGradient2)"/>
    
    <!-- Bottom Left Finder Pattern -->
    <rect x="-120" y="50" width="70" height="70" fill="url(#qrGradient1)" opacity="0.9"/>
    <rect x="-110" y="60" width="50" height="50" fill="white"/>
    <rect x="-100" y="70" width="30" height="30" fill="url(#qrGradient1)" opacity="0.9"/>
    <rect x="-95" y="75" width="20" height="20" fill="white"/>
    <rect x="-90" y="80" width="10" height="10" fill="url(#qrGradient1)"/>
    
    <!-- QR Code Data Modules (Pattern) - More Dense and Visible -->
    <rect x="-50" y="-120" width="18" height="18" fill="url(#qrGradient1)" opacity="0.9"/>
    <rect x="-15" y="-120" width="18" height="18" fill="url(#qrGradient2)" opacity="0.9"/>
    <rect x="25" y="-120" width="18" height="18" fill="url(#qrGradient1)" opacity="0.9"/>
    
    <rect x="-120" y="-50" width="18" height="18" fill="url(#qrGradient1)" opacity="0.9"/>
    <rect x="-85" y="-50" width="18" height="18" fill="url(#qrGradient2)" opacity="0.9"/>
    <rect x="-50" y="-50" width="18" height="18" fill="url(#qrGradient1)" opacity="0.9"/>
    <rect x="-15" y="-50" width="18" height="18" fill="url(#qrGradient2)" opacity="0.9"/>
    <rect x="25" y="-50" width="18" height="18" fill="url(#qrGradient1)" opacity="0.9"/>
    <rect x="60" y="-50" width="18" height="18" fill="url(#qrGradient2)" opacity="0.9"/>
    
    <rect x="-85" y="-15" width="18" height="18" fill="url(#qrGradient1)" opacity="0.9"/>
    <rect x="-50" y="-15" width="18" height="18" fill="url(#qrGradient2)" opacity="0.9"/>
    <rect x="-15" y="-15" width="18" height="18" fill="url(#qrGradient1)" opacity="0.9"/>
    <rect x="25" y="-15" width="18" height="18" fill="url(#qrGradient2)" opacity="0.9"/>
    <rect x="60" y="-15" width="18" height="18" fill="url(#qrGradient1)" opacity="0.9"/>
    
    <rect x="-120" y="25" width="18" height="18" fill="url(#qrGradient1)" opacity="0.9"/>
    <rect x="-85" y="25" width="18" height="18" fill="url(#qrGradient2)" opacity="0.9"/>
    <rect x="-50" y="25" width="18" height="18" fill="url(#qrGradient1)" opacity="0.9"/>
    <rect x="-15" y="25" width="18" height="18" fill="url(#qrGradient2)" opacity="0.9"/>
    <rect x="25" y="25" width="18" height="18" fill="url(#qrGradient1)" opacity="0.9"/>
    <rect x="60" y="25" width="18" height="18" fill="url(#qrGradient2)" opacity="0.9"/>
    
    <rect x="-85" y="60" width="18" height="18" fill="url(#qrGradient1)" opacity="0.9"/>
    <rect x="-50" y="60" width="18" height="18" fill="url(#qrGradient2)" opacity="0.9"/>
    <rect x="-15" y="60" width="18" height="18" fill="url(#qrGradient1)" opacity="0.9"/>
    <rect x="25" y="60" width="18" height="18" fill="url(#qrGradient2)" opacity="0.9"/>
    <rect x="60" y="60" width="18" height="18" fill="url(#qrGradient1)" opacity="0.9"/>
    
    <!-- Additional Pattern Modules for More Visibility -->
    <rect x="-100" y="-85" width="12" height="12" fill="url(#qrGradient1)" opacity="0.8"/>
    <rect x="-70" y="-85" width="12" height="12" fill="url(#qrGradient2)" opacity="0.8"/>
    <rect x="-40" y="-85" width="12" height="12" fill="url(#qrGradient1)" opacity="0.8"/>
    <rect x="-10" y="-85" width="12" height="12" fill="url(#qrGradient2)" opacity="0.8"/>
    <rect x="20" y="-85" width="12" height="12" fill="url(#qrGradient1)" opacity="0.8"/>
    <rect x="50" y="-85" width="12" height="12" fill="url(#qrGradient2)" opacity="0.8"/>
    
    <rect x="-100" y="-20" width="12" height="12" fill="url(#qrGradient1)" opacity="0.8"/>
    <rect x="-70" y="-20" width="12" height="12" fill="url(#qrGradient2)" opacity="0.8"/>
    <rect x="-40" y="-20" width="12" height="12" fill="url(#qrGradient1)" opacity="0.8"/>
    <rect x="-10" y="-20" width="12" height="12" fill="url(#qrGradient2)" opacity="0.8"/>
    <rect x="20" y="-20" width="12" height="12" fill="url(#qrGradient1)" opacity="0.8"/>
    <rect x="50" y="-20" width="12" height="12" fill="url(#qrGradient2)" opacity="0.8"/>
    
    <rect x="-100" y="45" width="12" height="12" fill="url(#qrGradient1)" opacity="0.8"/>
    <rect x="-70" y="45" width="12" height="12" fill="url(#qrGradient2)" opacity="0.8"/>
    <rect x="-40" y="45" width="12" height="12" fill="url(#qrGradient1)" opacity="0.8"/>
    <rect x="-10" y="45" width="12" height="12" fill="url(#qrGradient2)" opacity="0.8"/>
    <rect x="20" y="45" width="12" height="12" fill="url(#qrGradient1)" opacity="0.8"/>
    <rect x="50" y="45" width="12" height="12" fill="url(#qrGradient2)" opacity="0.8"/>
  </g>
  
  <!-- Food & Drink Icons (4 Animated Icons - Center Bottom) -->
  
  <!-- Burger (Food) - Bottom Left -->
  <g id="burger" class="product-float1" transform="translate(140, 300)">
    <!-- Background Circle with stronger glow -->
    <circle cx="0" cy="0" r="50" fill="#ff6b6b" opacity="1" filter="url(#glow)"/>
    <circle cx="0" cy="0" r="48" fill="#ffffff" opacity="0.2"/>
    <!-- Burger Bun Top -->
    <ellipse cx="0" cy="-18" rx="28" ry="12" fill="#ffd700"/>
    <ellipse cx="0" cy="-18" rx="26" ry="10" fill="#f4a460"/>
    <!-- Burger Patty -->
    <rect x="-26" y="-8" width="52" height="14" rx="6" fill="#8b4513"/>
    <rect x="-24" y="-6" width="48" height="10" rx="5" fill="#a0522d"/>
    <!-- Lettuce -->
    <path d="M -26 -8 Q -20 -12 -14 -8 Q -8 -12 -2 -8 Q 4 -12 10 -8 Q 16 -12 22 -8 Q 28 -12 26 -8" fill="#228b22" stroke="#32cd32" stroke-width="1"/>
    <!-- Cheese -->
    <rect x="-26" y="2" width="52" height="8" rx="3" fill="#ffd700" opacity="0.9"/>
    <!-- Burger Bun Bottom -->
    <ellipse cx="0" cy="14" rx="28" ry="12" fill="#ffd700"/>
    <ellipse cx="0" cy="14" rx="26" ry="10" fill="#f4a460"/>
    <!-- Sesame Seeds -->
    <circle cx="-16" cy="-20" r="3" fill="#ffffff" opacity="0.8"/>
    <circle cx="16" cy="-20" r="3" fill="#ffffff" opacity="0.8"/>
    <circle cx="-8" cy="-22" r="2.5" fill="#ffffff" opacity="0.8"/>
    <circle cx="8" cy="-22" r="2.5" fill="#ffffff" opacity="0.8"/>
    <circle cx="0" cy="-24" r="2" fill="#ffffff" opacity="0.8"/>
  </g>
  
  <!-- Pizza (Food) - Bottom Right -->
  <g id="pizza" class="product-float2" transform="translate(310, 300)">
    <!-- Background Circle with stronger glow -->
    <circle cx="0" cy="0" r="52" fill="#ffa500" opacity="1" filter="url(#glow)"/>
    <circle cx="0" cy="0" r="50" fill="#ffffff" opacity="0.2"/>
    <!-- Pizza Base -->
    <circle cx="0" cy="0" r="48" fill="#ffd700"/>
    <circle cx="0" cy="0" r="46" fill="#f4a460"/>
    <!-- Pizza Slices -->
    <path d="M 0 0 L 0 -48 L -20 -40 Z" fill="#ff8c00" opacity="0.3"/>
    <path d="M 0 0 L 0 -48 L 20 -40 Z" fill="#ff8c00" opacity="0.3"/>
    <path d="M 0 0 L 48 0 L 40 20 Z" fill="#ff8c00" opacity="0.3"/>
    <path d="M 0 0 L 48 0 L 40 -20 Z" fill="#ff8c00" opacity="0.3"/>
    <path d="M 0 0 L 0 48 L -20 40 Z" fill="#ff8c00" opacity="0.3"/>
    <path d="M 0 0 L 0 48 L 20 40 Z" fill="#ff8c00" opacity="0.3"/>
    <path d="M 0 0 L -48 0 L -40 20 Z" fill="#ff8c00" opacity="0.3"/>
    <path d="M 0 0 L -48 0 L -40 -20 Z" fill="#ff8c00" opacity="0.3"/>
    <!-- Toppings -->
    <circle cx="-20" cy="-20" r="7" fill="#ff6347"/>
    <circle cx="20" cy="20" r="7" fill="#ff6347"/>
    <circle cx="20" cy="-20" r="7" fill="#228b22"/>
    <circle cx="-20" cy="20" r="7" fill="#ffd700"/>
    <circle cx="0" cy="-30" r="6" fill="#ff6347"/>
    <circle cx="30" cy="0" r="6" fill="#228b22"/>
    <circle cx="0" cy="30" r="6" fill="#ff6347"/>
    <circle cx="-30" cy="0" r="6" fill="#ffd700"/>
    <circle cx="0" cy="0" r="5" fill="#8b4513"/>
  </g>
  
  <!-- Coffee Cup (Drink) - Top Left -->
  <g id="coffee" class="product-float3" transform="translate(140, 200)">
    <!-- Background Circle with stronger glow -->
    <circle cx="0" cy="0" r="50" fill="#8b4513" opacity="1" filter="url(#glow)"/>
    <circle cx="0" cy="0" r="48" fill="#ffffff" opacity="0.2"/>
    <!-- Cup Body -->
    <rect x="-28" y="-38" width="56" height="42" rx="6" fill="#654321"/>
    <rect x="-26" y="-36" width="52" height="38" rx="5" fill="#8b4513"/>
    <rect x="-24" y="-34" width="48" height="34" rx="4" fill="#a0522d"/>
    <!-- Coffee Liquid -->
    <ellipse cx="0" cy="-38" rx="26" ry="8" fill="#3e2723"/>
    <ellipse cx="0" cy="-36" rx="24" ry="6" fill="#5d4037"/>
    <!-- Cup Handle -->
    <path d="M 28 -20 Q 38 -20 38 -10 Q 38 0 28 0 Q 32 -5 32 -10 Q 32 -15 28 -20" 
          stroke="#654321" stroke-width="6" fill="none" stroke-linecap="round"/>
    <path d="M 28 -18 Q 36 -18 36 -10 Q 36 -2 28 -2" 
          stroke="#8b4513" stroke-width="4" fill="none" stroke-linecap="round"/>
    <!-- Steam -->
    <path d="M -12 -40 Q -12 -50 -8 -50 Q -4 -50 -4 -45" stroke="#ffffff" stroke-width="3" fill="none" stroke-linecap="round" opacity="0.7"/>
    <path d="M 0 -40 Q 0 -50 4 -50 Q 8 -50 8 -45" stroke="#ffffff" stroke-width="3" fill="none" stroke-linecap="round" opacity="0.7"/>
    <path d="M 12 -40 Q 12 -50 16 -50 Q 20 -50 20 -45" stroke="#ffffff" stroke-width="3" fill="none" stroke-linecap="round" opacity="0.7"/>
    <!-- Coffee Foam Bubbles -->
    <circle cx="-15" cy="-38" r="4" fill="#ffffff" opacity="0.6"/>
    <circle cx="15" cy="-38" r="4" fill="#ffffff" opacity="0.6"/>
    <circle cx="0" cy="-40" r="3" fill="#ffffff" opacity="0.6"/>
  </g>
  
  <!-- Drink Bottle (Drink) - Top Right -->
  <g id="drink" class="product-float4" transform="translate(310, 200)">
    <!-- Background Circle with stronger glow -->
    <circle cx="0" cy="0" r="50" fill="#0c87f0" opacity="1" filter="url(#glow)"/>
    <circle cx="0" cy="0" r="48" fill="#ffffff" opacity="0.2"/>
    <!-- Bottle Body -->
    <rect x="-18" y="-42" width="36" height="46" rx="5" fill="#0c87f0"/>
    <rect x="-16" y="-40" width="32" height="42" rx="4" fill="#1e90ff"/>
    <rect x="-14" y="-38" width="28" height="38" rx="3" fill="#87ceeb"/>
    <!-- Bottle Neck -->
    <rect x="-10" y="-48" width="20" height="8" rx="2" fill="#0c87f0"/>
    <rect x="-8" y="-46" width="16" height="6" rx="1" fill="#1e90ff"/>
    <!-- Bottle Cap -->
    <ellipse cx="0" cy="-48" rx="12" ry="5" fill="#4ecdc4"/>
    <ellipse cx="0" cy="-50" rx="10" ry="4" fill="#0c87f0"/>
    <!-- Liquid Level -->
    <rect x="-14" y="-20" width="28" height="20" rx="2" fill="#87ceeb" opacity="0.8"/>
    <!-- Bubbles -->
    <circle cx="-8" cy="-10" r="4" fill="#ffffff" opacity="0.7"/>
    <circle cx="8" cy="-15" r="3" fill="#ffffff" opacity="0.7"/>
    <circle cx="0" cy="-5" r="3.5" fill="#ffffff" opacity="0.7"/>
    <circle cx="-5" cy="-20" r="2.5" fill="#ffffff" opacity="0.6"/>
    <circle cx="5" cy="-25" r="2" fill="#ffffff" opacity="0.6"/>
    <!-- Label -->
    <rect x="-12" y="-30" width="24" height="12" rx="2" fill="#ffffff" opacity="0.3"/>
    <rect x="-10" y="-28" width="20" height="8" rx="1" fill="#0c87f0" opacity="0.2"/>
  </g>
  
  <!-- Shopping Cart Icon (Animated) -->
  <g id="cart-icon" class="cart-animation">
    <circle cx="225" cy="100" r="35" fill="url(#cartGradient)" opacity="0.95" filter="url(#glow)"/>
    <path d="M210 100 L240 100 L245 120 L205 120 Z" fill="white" opacity="0.9"/>
    <circle cx="215" cy="130" r="8" fill="white"/>
    <circle cx="235" cy="130" r="8" fill="white"/>
    <path d="M210 95 L240 95" stroke="white" stroke-width="3" stroke-linecap="round"/>
  </g>
  
  <!-- QR Code Tag with "Scan Me" -->
  <g id="price-tag" class="price-animation" transform="translate(275, 92)">
    <!-- Tag Background -->
    <rect x="-40" y="-30" width="80" height="60" rx="6" fill="white" filter="url(#glow)" opacity="0.95"/>
    <rect x="-35" y="-25" width="70" height="50" rx="4" fill="white" stroke="url(#qrGradient1)" stroke-width="2"/>
    
    <!-- QR Code inside -->
    <g transform="translate(0, -5)">
      <!-- Top Left Finder Pattern -->
      <rect x="-20" y="-15" width="12" height="12" fill="url(#qrGradient1)"/>
      <rect x="-17" y="-12" width="6" height="6" fill="white"/>
      <rect x="-15" y="-10" width="2" height="2" fill="url(#qrGradient1)"/>
      
      <!-- Top Right Finder Pattern -->
      <rect x="8" y="-15" width="12" height="12" fill="url(#qrGradient2)"/>
      <rect x="11" y="-12" width="6" height="6" fill="white"/>
      <rect x="13" y="-10" width="2" height="2" fill="url(#qrGradient2)"/>
      
      <!-- Bottom Left Finder Pattern -->
      <rect x="-20" y="3" width="12" height="12" fill="url(#qrGradient1)"/>
      <rect x="-17" y="6" width="6" height="6" fill="white"/>
      <rect x="-15" y="8" width="2" height="2" fill="url(#qrGradient1)"/>
      
      <!-- QR Code Data Modules -->
      <rect x="-5" y="-15" width="3" height="3" fill="url(#qrGradient1)"/>
      <rect x="0" y="-15" width="3" height="3" fill="url(#qrGradient2)"/>
      <rect x="5" y="-15" width="3" height="3" fill="url(#qrGradient1)"/>
      
      <rect x="-20" y="-5" width="3" height="3" fill="url(#qrGradient1)"/>
      <rect x="-12" y="-5" width="3" height="3" fill="url(#qrGradient2)"/>
      <rect x="-5" y="-5" width="3" height="3" fill="url(#qrGradient1)"/>
      <rect x="0" y="-5" width="3" height="3" fill="url(#qrGradient2)"/>
      <rect x="5" y="-5" width="3" height="3" fill="url(#qrGradient1)"/>
      <rect x="10" y="-5" width="3" height="3" fill="url(#qrGradient2)"/>
      
      <rect x="-12" y="0" width="3" height="3" fill="url(#qrGradient1)"/>
      <rect x="-5" y="0" width="3" height="3" fill="url(#qrGradient2)"/>
      <rect x="0" y="0" width="3" height="3" fill="url(#qrGradient1)"/>
      <rect x="5" y="0" width="3" height="3" fill="url(#qrGradient2)"/>
      <rect x="10" y="0" width="3" height="3" fill="url(#qrGradient1)"/>
      
      <rect x="-20" y="5" width="3" height="3" fill="url(#qrGradient1)"/>
      <rect x="-12" y="5" width="3" height="3" fill="url(#qrGradient2)"/>
      <rect x="-5" y="5" width="3" height="3" fill="url(#qrGradient1)"/>
      <rect x="0" y="5" width="3" height="3" fill="url(#qrGradient2)"/>
      <rect x="5" y="5" width="3" height="3" fill="url(#qrGradient1)"/>
      <rect x="10" y="5" width="3" height="3" fill="url(#qrGradient2)"/>
      
      <rect x="-12" y="10" width="3" height="3" fill="url(#qrGradient1)"/>
      <rect x="-5" y="10" width="3" height="3" fill="url(#qrGradient2)"/>
      <rect x="0" y="10" width="3" height="3" fill="url(#qrGradient1)"/>
      <rect x="5" y="10" width="3" height="3" fill="url(#qrGradient2)"/>
      <rect x="10" y="10" width="3" height="3" fill="url(#qrGradient1)"/>
    </g>
    
    <!-- "Scan Me" Text -->
    <text x="0" y="25" font-family="Arial, sans-serif" font-size="10" font-weight="bold" fill="url(#qrGradient1)" text-anchor="middle">Scan Me</text>
    
    <!-- Tag Point -->
    <path d="M-40 -30 L-45 -25 L-40 -20 Z" fill="white"/>
  </g>
  
  <!-- QR Code Background (Behind Animated Icons) -->
  <g id="qr-background" transform="translate(225, 200)" opacity="0.15">
    <!-- Large QR Code Background -->
    <rect x="-120" y="-120" width="240" height="240" rx="20" fill="white"/>
    <rect x="-115" y="-115" width="230" height="230" rx="15" fill="white" stroke="url(#qrGradient1)" stroke-width="2"/>
    
    <!-- Top Left Finder Pattern -->
    <rect x="-105" y="-105" width="60" height="60" fill="url(#qrGradient1)"/>
    <rect x="-95" y="-95" width="40" height="40" fill="white"/>
    <rect x="-85" y="-85" width="20" height="20" fill="url(#qrGradient1)"/>
    
    <!-- Top Right Finder Pattern -->
    <rect x="45" y="-105" width="60" height="60" fill="url(#qrGradient2)"/>
    <rect x="55" y="-95" width="40" height="40" fill="white"/>
    <rect x="65" y="-85" width="20" height="20" fill="url(#qrGradient2)"/>
    
    <!-- Bottom Left Finder Pattern -->
    <rect x="-105" y="45" width="60" height="60" fill="url(#qrGradient1)"/>
    <rect x="-95" y="55" width="40" height="40" fill="white"/>
    <rect x="-85" y="65" width="20" height="20" fill="url(#qrGradient1)"/>
    
    <!-- QR Code Data Modules (Pattern) -->
    <rect x="-40" y="-105" width="15" height="15" fill="url(#qrGradient1)"/>
    <rect x="-10" y="-105" width="15" height="15" fill="url(#qrGradient2)"/>
    <rect x="20" y="-105" width="15" height="15" fill="url(#qrGradient1)"/>
    
    <rect x="-105" y="-40" width="15" height="15" fill="url(#qrGradient1)"/>
    <rect x="-75" y="-40" width="15" height="15" fill="url(#qrGradient2)"/>
    <rect x="-40" y="-40" width="15" height="15" fill="url(#qrGradient1)"/>
    <rect x="-10" y="-40" width="15" height="15" fill="url(#qrGradient2)"/>
    <rect x="20" y="-40" width="15" height="15" fill="url(#qrGradient1)"/>
    <rect x="50" y="-40" width="15" height="15" fill="url(#qrGradient2)"/>
    
    <rect x="-75" y="-10" width="15" height="15" fill="url(#qrGradient1)"/>
    <rect x="-40" y="-10" width="15" height="15" fill="url(#qrGradient2)"/>
    <rect x="-10" y="-10" width="15" height="15" fill="url(#qrGradient1)"/>
    <rect x="20" y="-10" width="15" height="15" fill="url(#qrGradient2)"/>
    <rect x="50" y="-10" width="15" height="15" fill="url(#qrGradient1)"/>
    
    <rect x="-105" y="20" width="15" height="15" fill="url(#qrGradient1)"/>
    <rect x="-75" y="20" width="15" height="15" fill="url(#qrGradient2)"/>
    <rect x="-40" y="20" width="15" height="15" fill="url(#qrGradient1)"/>
    <rect x="-10" y="20" width="15" height="15" fill="url(#qrGradient2)"/>
    <rect x="20" y="20" width="15" height="15" fill="url(#qrGradient1)"/>
    <rect x="50" y="20" width="15" height="15" fill="url(#qrGradient2)"/>
    
    <rect x="-75" y="50" width="15" height="15" fill="url(#qrGradient1)"/>
    <rect x="-40" y="50" width="15" height="15" fill="url(#qrGradient2)"/>
    <rect x="-10" y="50" width="15" height="15" fill="url(#qrGradient1)"/>
    <rect x="20" y="50" width="15" height="15" fill="url(#qrGradient2)"/>
    <rect x="50" y="50" width="15" height="15" fill="url(#qrGradient1)"/>
  </g>
  
  <!-- Decorative Elements -->
  <circle cx="50" cy="150" r="20" fill="#7444fd" opacity="0.3" class="float-element"/>
  <circle cx="400" cy="150" r="20" fill="#0c87f0" opacity="0.3" class="float-element" style="animation-delay: 0.5s;"/>
  <circle cx="50" cy="300" r="15" fill="#ff6b6b" opacity="0.3" class="float-element" style="animation-delay: 1s;"/>
  <circle cx="400" cy="300" r="15" fill="#4ecdc4" opacity="0.3" class="float-element" style="animation-delay: 1.5s;"/>
</svg>

